# xmcd
#
# Track frame offsets:
#	150
#	19802
#	59722
#	82908
#	100388
#	117607
#	144443
#	158042
#	177621
#	216113
#	246693
#	280612
#	301938
#
# Disc length: 4284 seconds
#
# Revision: 1
# Processed by: cddbd v1.5.2PL0 Copyright (c) Steve Scherf et al.
# Submitted via: audiograbber 1.83.01
#
DISCID=bf10ba0d
DTITLE=Blue Effect and Hosté - Live
DYEAR=2008
DGENRE=Blues
TTITLE0=Zapomenuté svìtlo
TTITLE1=Je tøeba obout boty a pak dlouho jít
TTITLE2=Indolence
TTITLE3=I'm So Lonesome
TTITLE4=Get Down From The Tree
TTITLE5=Sluneèný hrob
TTITLE6=Èajovna
TTITLE7=Avignonské sleèny z Prahy
TTITLE8=Zmoudøení babím létem
TTITLE9=Rajky
TTITLE10=Ej padá, padá rosenka
TTITLE11=Rainy Day
TTITLE12=I Like The World (Sun Is So Bright)
EXTD=
EXTT0=
EXTT1=
EXTT2=
EXTT3=
EXTT4=
EXTT5=
EXTT6=
EXTT7=
EXTT8=
EXTT9=
EXTT10=
EXTT11=
EXTT12=
PLAYORDER=
